<svg width="64px" height="64px" class="copy-icon" fill="currentColor" version="1.1" xmlns="http://www.w3.org/2000/svg" xmlns:xlink="http://www.w3.org/1999/xlink" viewBox="0 0 512 512" enable-background="new 0 0 512 512" xml:space="preserve">
    <g stroke-width="0"/>
    <g stroke-linecap="round" stroke-linejoin="round"/>
    <g>
        <path d="M256,0C114.609,0,0,114.609,0,256s114.609,256,256,256s256-114.609,256-256S397.391,0,256,0z M256,472 c-119.297,0-216-96.703-216-216S136.703,40,256,40s216,96.703,216,216S375.297,472,256,472z"/>
        <path fill="#055D20" d="M360.5,128.5h-121v64h-112v192h144v-64h112v-169L360.5,128.5z M255.5,368.5h-112v-160h96v112h16V368.5z M367.5,304.5h-112 v-160h80v32h32V304.5z"/>
    </g>
</svg>
